<?xml version="1.0" standalone="no"?>
<!DOCTYPE svg PUBLIC "-//W3C//DTD SVG 20010904//EN"
 "http://www.w3.org/TR/2001/REC-SVG-20010904/DTD/svg10.dtd">
<svg version="1.0" xmlns="http://www.w3.org/2000/svg"
 width="768.000000pt" height="432.000000pt" viewBox="0 0 768.000000 432.000000"
 preserveAspectRatio="xMidYMid meet">

<g transform="translate(0.000000,432.000000) scale(0.100000,-0.100000)"
fill="#000000" stroke="none">
<path d="M2724 2587 c-2 -7 -3 -100 -2 -207 l3 -195 63 -3 62 -3 0 86 0 85 80
0 80 0 0 45 0 45 -80 0 -80 0 0 35 0 35 95 0 95 0 0 45 0 45 -155 0 c-117 0
-157 -3 -161 -13z"/>
<path d="M3110 2390 l0 -210 163 2 162 3 0 50 0 50 -97 3 -97 3 -3 152 -3 152
-62 3 -63 3 0 -211z"/>
<path d="M3572 2579 c-26 -13 -55 -39 -70 -62 -24 -36 -27 -50 -27 -127 0 -77
3 -91 27 -127 68 -103 258 -115 345 -21 31 33 44 75 45 143 2 105 -32 165
-114 199 -55 23 -154 21 -206 -5z m143 -79 c60 -23 73 -161 20 -207 -29 -25
-52 -28 -88 -12 -32 15 -47 49 -47 109 0 95 44 137 115 110z"/>
<path d="M3965 2588 c-3 -7 -4 -101 -3 -208 l3 -195 63 -3 62 -3 0 81 0 80 65
0 c39 0 78 6 95 15 79 41 81 187 3 225 -41 20 -281 27 -288 8z m213 -90 c32
-32 0 -78 -54 -78 -34 0 -34 0 -34 45 l0 45 38 0 c21 0 43 -5 50 -12z"/>
<path d="M4560 2550 l0 -50 99 0 99 0 -44 -65 c-44 -66 -70 -134 -81 -212 l-6
-43 55 0 55 0 11 66 c13 81 58 178 106 231 29 33 36 48 36 82 l0 41 -165 0
-165 0 0 -50z"/>
<path d="M2682 2068 l3 -43 1113 -3 1112 -2 0 22 c0 13 3 33 6 46 l6 22 -1121
0 -1122 0 3 -42z"/>
<path d="M4470 1876 c0 -53 3 -96 8 -96 4 0 7 39 7 87 0 84 1 88 23 91 19 3
22 -1 22 -32 0 -25 -4 -36 -15 -36 -8 0 -15 -4 -15 -8 0 -20 33 -102 40 -102
5 0 3 19 -5 41 -14 37 -13 43 1 53 11 8 14 24 12 51 -3 38 -5 40 -40 43 l-38
3 0 -95z"/>
<path d="M4718 1935 c4 -29 1 -35 -15 -35 -28 0 -43 -20 -43 -56 0 -50 9 -64
41 -64 l29 0 0 95 c0 52 -4 95 -8 95 -4 0 -6 -16 -4 -35z m0 -97 c-2 -31 -8
-44 -20 -46 -15 -3 -18 4 -18 42 0 40 3 46 21 46 18 0 20 -5 17 -42z"/>
<path d="M4755 1930 c-3 -5 -1 -10 4 -10 6 0 11 5 11 10 0 6 -2 10 -4 10 -3 0
-8 -4 -11 -10z"/>
<path d="M4575 1890 c-4 -7 -2 -17 4 -23 8 -8 11 -8 11 1 0 7 7 12 15 12 24 0
17 -28 -7 -32 -18 -2 -24 -11 -26 -35 -3 -32 -2 -33 33 -33 l36 0 -3 58 c-3
53 -5 57 -30 60 -14 2 -29 -2 -33 -8z m43 -77 c-5 -25 -28 -28 -28 -4 0 12 6
21 16 21 9 0 14 -7 12 -17z"/>
<path d="M4763 1840 c0 -36 2 -50 4 -32 2 17 2 47 0 65 -2 17 -4 3 -4 -33z"/>
<path d="M4800 1840 l0 -60 30 0 30 0 0 60 0 60 -30 0 -30 0 0 -60z m50 -5 c0
-38 -3 -45 -20 -45 -17 0 -20 7 -20 45 0 38 3 45 20 45 17 0 20 -7 20 -45z"/>
</g>
</svg>
