<?xml version="1.0" standalone="no"?>
<!DOCTYPE svg PUBLIC "-//W3C//DTD SVG 20010904//EN"
 "http://www.w3.org/TR/2001/REC-SVG-20010904/DTD/svg10.dtd">
<svg version="1.0" xmlns="http://www.w3.org/2000/svg"
 width="768.000000pt" height="432.000000pt" viewBox="0 0 768.000000 432.000000"
 preserveAspectRatio="xMidYMid meet">

<g transform="translate(0.000000,432.000000) scale(0.100000,-0.100000)"
fill="#000000" stroke="none">
<path d="M3492 2123 l3 -38 54 -3 c59 -3 71 5 71 51 0 27 -1 27 -66 27 l-65 0
3 -37z"/>
<path d="M2235 1988 c-4 -90 -8 -185 -9 -212 l-1 -50 63 -2 62 -3 0 72 c0 40
3 116 7 170 l6 97 52 0 c59 0 81 -16 71 -53 -6 -26 -43 -47 -83 -47 -20 0 -24
-4 -18 -17 3 -10 20 -58 37 -108 17 -49 35 -94 39 -99 7 -8 139 -18 139 -11 0
2 -15 36 -34 76 -46 102 -51 119 -33 119 26 0 75 55 82 92 10 50 -14 101 -58
121 -28 13 -65 17 -175 17 l-140 0 -7 -162z"/>
<path d="M3300 2101 l0 -48 -76 -5 c-83 -6 -113 -21 -151 -77 -50 -74 -34
-192 31 -232 41 -25 111 -25 153 1 28 17 32 17 35 3 2 -12 16 -17 54 -18 l51
-2 7 116 c3 64 9 160 12 214 l7 97 -62 0 -61 0 0 -49z m-10 -170 c0 -21 -5
-52 -11 -70 -19 -55 -77 -69 -106 -25 -15 23 -15 30 -2 67 15 45 45 67 92 67
25 0 27 -3 27 -39z"/>
<path d="M2765 2044 c-11 -3 -30 -7 -41 -9 -16 -4 -23 -14 -26 -41 -4 -34 -3
-35 21 -29 14 3 50 9 78 12 43 4 54 2 59 -11 9 -23 5 -26 -78 -48 -90 -24
-128 -56 -128 -107 1 -62 38 -91 119 -91 34 0 51 4 51 13 0 6 3 23 7 36 4 17
3 22 -6 17 -18 -12 -51 4 -51 24 0 21 18 33 62 44 l27 6 3 -66 3 -67 56 -2 56
-3 8 135 7 136 -25 25 c-22 22 -36 26 -104 28 -43 2 -87 1 -98 -2z"/>
<path d="M3777 2036 c-74 -27 -107 -76 -107 -158 0 -108 72 -164 201 -156 73
4 104 20 143 71 26 35 33 124 13 163 -43 82 -148 116 -250 80z m113 -86 c46
-24 31 -121 -20 -139 -65 -22 -106 63 -59 123 21 27 48 33 79 16z"/>
<path d="M3483 1888 c-5 -84 -8 -155 -7 -157 7 -9 126 -7 130 3 2 6 5 77 6
159 l3 147 -61 0 -61 0 -10 -152z"/>
<path d="M4298 1946 c-22 -17 -25 -71 -3 -63 12 5 15 -9 17 -76 l3 -82 31 -3
31 -3 6 83 c4 46 7 100 7 121 0 36 -1 37 -37 37 -21 0 -46 -7 -55 -14z"/>
<path d="M4500 1932 c-51 -51 -52 -153 -3 -192 47 -36 127 -18 151 35 7 14 12
51 12 81 0 45 -4 59 -25 79 -36 36 -97 35 -135 -3z m91 -46 c14 -29 4 -89 -16
-106 -24 -20 -45 5 -45 52 0 71 38 105 61 54z"/>
<path d="M4717 1953 c-4 -3 -7 -15 -7 -25 0 -15 8 -18 45 -18 62 0 60 -21 -10
-90 -85 -84 -75 -100 60 -97 64 2 70 4 73 25 3 20 -1 22 -43 22 l-47 0 51 56
c56 61 64 94 29 118 -23 16 -138 23 -151 9z"/>
<path d="M5057 1953 c-4 -3 -7 -15 -7 -25 0 -14 8 -18 39 -18 42 0 63 -16 40
-31 -8 -5 -24 -9 -35 -9 -20 0 -34 -17 -34 -41 0 -5 16 -9 35 -9 23 0 38 -6
42 -16 9 -24 -17 -36 -64 -30 -40 5 -43 4 -43 -18 0 -60 170 -43 186 18 6 27
-10 66 -28 66 -6 0 -2 10 10 23 49 53 13 97 -79 97 -30 0 -59 -3 -62 -7z"/>
<path d="M4928 1760 c-5 -30 6 -40 43 -40 15 0 19 7 19 35 0 32 -3 35 -29 35
-24 0 -29 -5 -33 -30z"/>
</g>
</svg>
