<?xml version="1.0" standalone="no"?>
<!DOCTYPE svg PUBLIC "-//W3C//DTD SVG 20010904//EN"
 "http://www.w3.org/TR/2001/REC-SVG-20010904/DTD/svg10.dtd">
<svg version="1.0" xmlns="http://www.w3.org/2000/svg"
 width="1920.000000pt" height="1080.000000pt" viewBox="0 0 1920.000000 1080.000000"
 preserveAspectRatio="xMidYMid meet">

<g transform="translate(0.000000,1080.000000) scale(0.100000,-0.100000)"
fill="#000000" stroke="none">
<path d="M0 5400 l0 -5400 9600 0 9600 0 0 5400 0 5400 -9600 0 -9600 0 0
-5400z m6020 1940 l0 -1390 1405 0 1405 0 -1 -782 c0 -771 -1 -782 -18 -711
-54 219 -220 382 -446 438 -95 24 -269 24 -350 1 -208 -61 -383 -238 -430
-437 -19 -82 -19 -238 0 -314 56 -223 242 -416 450 -468 150 -38 267 -30 285
19 6 14 10 108 10 208 0 168 -2 185 -20 209 -11 14 -20 30 -20 36 0 14 2 14
-54 -5 -61 -21 -107 -12 -140 27 -52 61 -43 153 19 208 46 40 93 48 151 26 77
-29 79 -35 82 -379 l3 -300 25 -23 c24 -22 30 -23 224 -23 167 0 201 2 214 16
15 14 16 -9 16 -255 l0 -271 -1475 0 -1475 0 0 1390 0 1390 -710 0 -710 0 0
1390 0 1390 780 0 780 0 0 -1390z m7440 -2365 l0 -1805 -1475 0 -1475 0 0
1805 0 1805 1475 0 1475 0 0 -1805z m-2003 -2189 c88 -96 -8 -236 -136 -197
-105 31 -122 163 -28 222 24 15 44 19 81 16 42 -4 55 -10 83 -41z m-600 -1
c78 -23 136 -74 175 -152 l33 -68 3 -372 3 -373 -140 0 -140 0 -3 331 -3 331
-24 19 c-29 24 -43 24 -72 0 l-24 -19 -3 -331 -3 -331 -140 0 -139 0 0 343 c0
380 3 405 63 494 36 55 108 106 176 127 61 19 175 20 238 1z m1883 -151 c0
-80 3 -144 8 -142 63 33 91 40 149 36 51 -3 69 -9 100 -34 86 -70 103 -143
103 -456 l0 -218 -135 0 -135 0 -2 218 -3 217 -30 3 c-51 6 -55 -10 -55 -235
l0 -203 -130 0 -130 0 0 480 0 480 130 0 130 0 0 -146z m740 11 l0 -135 60 0
60 0 0 -140 0 -140 -60 0 c-33 0 -60 -2 -60 -5 0 -2 5 -26 11 -54 12 -58 26
-72 77 -80 l37 -6 3 -139 3 -138 -64 4 c-130 8 -250 95 -299 217 -22 54 -23
69 -26 404 l-3 347 130 0 131 0 0 -135z m1310 -345 l0 -480 -130 0 -130 0 0
480 0 480 130 0 130 0 0 -480z m1190 148 l5 -326 24 -26 c50 -53 148 -25 167
48 8 32 -12 82 -40 101 -25 18 -87 20 -104 3 -9 -9 -12 21 -12 136 l0 149 83
-5 c100 -5 158 -29 227 -94 116 -108 148 -290 76 -433 -29 -57 -112 -136 -169
-161 -75 -33 -170 -43 -240 -25 -156 40 -251 144 -276 305 -6 36 -11 199 -11
363 l0 298 133 -3 132 -3 5 -327z m-3900 71 c106 -24 188 -102 221 -210 18
-61 20 -89 17 -296 -3 -211 -5 -232 -27 -285 -31 -75 -108 -160 -175 -193 -73
-36 -165 -48 -241 -32 l-60 12 -3 121 -3 122 43 -15 c83 -29 156 -1 189 70 16
36 19 67 19 230 0 186 0 188 -25 212 -37 38 -95 35 -129 -6 -56 -66 -18 -149
69 -149 l45 0 0 -119 0 -119 -42 -8 c-112 -19 -200 9 -273 87 -71 76 -90 126
-90 234 0 76 5 99 27 147 50 108 163 191 282 208 54 7 83 5 156 -11z m2137
-24 c91 -45 170 -139 187 -221 l7 -31 -68 -6 c-129 -13 -193 -9 -220 13 -65
51 -163 4 -163 -79 0 -61 41 -104 100 -104 39 0 48 5 77 38 l32 37 126 6 126
5 -7 -39 c-31 -168 -139 -278 -301 -304 -246 -40 -462 185 -413 433 15 77 46
132 111 192 110 103 269 127 406 60z m-2727 -325 l0 -350 -130 0 -130 0 0 350
0 350 130 0 130 0 0 -350z m3720 134 c0 -122 4 -213 10 -225 12 -22 59 -26 78
-7 9 9 12 73 12 225 l0 213 130 0 130 0 0 -230 c0 -208 -2 -234 -21 -285 -23
-63 -94 -141 -151 -168 -161 -76 -348 -8 -422 152 -19 42 -21 66 -24 289 l-4
242 131 0 131 0 0 -206z"/>
<path d="M4820 7095 l0 -745 220 0 220 0 2 543 3 542 75 -1 c113 -2 160 -32
160 -104 0 -71 -44 -110 -125 -110 l-45 0 0 -199 0 -199 105 -234 104 -233
236 -3 235 -2 -13 32 c-8 18 -64 156 -127 306 l-113 273 62 64 c90 93 124 172
129 296 7 158 -29 258 -130 365 -59 63 -142 108 -244 134 -69 18 -111 20 -416
20 l-338 0 0 -745z"/>
<path d="M6230 4522 l0 -799 68 -6 c86 -9 325 -9 375 -1 l37 7 0 556 c0 644
-7 601 91 601 63 0 115 -16 137 -43 35 -42 19 -135 -30 -166 -12 -7 -48 -16
-80 -18 l-58 -6 0 -205 0 -205 110 -246 c61 -135 115 -252 119 -260 7 -11 53
-15 215 -19 165 -4 206 -7 206 -18 0 -18 81 -19 98 -2 19 19 15 35 -40 172
-43 104 -54 124 -56 100 -3 -22 -23 17 -88 175 -46 112 -84 210 -84 216 0 7
28 44 63 83 35 39 72 90 83 114 l19 43 5 -40 5 -40 24 60 c44 111 40 298 -9
409 -18 40 -19 41 -19 11 -1 -27 -4 -24 -29 30 -34 72 -113 161 -182 205 -28
18 -85 44 -128 58 -77 26 -77 26 -464 30 l-388 3 0 -799z"/>
<path d="M11074 4906 c-174 -40 -314 -166 -383 -344 l-25 -67 -4 -387 c-3
-299 -1 -388 9 -388 6 0 18 -8 25 -17 11 -16 34 -18 214 -18 188 0 203 1 216
19 11 16 14 79 14 338 0 254 3 326 14 353 16 39 52 53 85 35 21 -11 21 -16 21
-360 0 -246 3 -350 11 -350 6 0 22 -9 36 -20 24 -18 41 -20 207 -20 148 0 186
3 204 16 l22 15 0 352 c0 391 -6 444 -62 557 -35 73 -125 170 -204 219 -103
66 -277 95 -400 67z"/>
<path d="M12375 4906 c-188 -44 -334 -154 -420 -317 -96 -183 -87 -432 24
-618 178 -300 544 -402 855 -238 69 37 91 64 77 98 -14 35 -197 251 -225 266
-13 7 -26 19 -30 28 -4 12 -13 9 -50 -17 -54 -37 -122 -43 -156 -13 -68 62
-89 232 -40 330 32 64 77 95 141 95 36 0 55 -6 78 -26 17 -14 31 -30 31 -35 0
-5 -49 -9 -109 -9 l-108 0 -13 -45 c-7 -27 -10 -70 -7 -105 4 -49 10 -64 34
-84 l28 -25 313 -1 c299 0 313 1 332 20 43 43 15 247 -52 373 -69 130 -232
262 -378 308 -85 26 -244 34 -325 15z"/>
</g>
</svg>
